<?xml version="1.0" encoding="UTF-8"?>
<svg id="Ebene_2" xmlns="http://www.w3.org/2000/svg" viewBox="0 0 706.1 307.62">
  <defs>
    <style>
      .cls-1 {
        fill: none;
        stroke: #d3931e;
        stroke-linejoin: round;
      }

      .cls-2 {
        opacity: .09;
      }

      .cls-3 {
        fill: #ffc73b;
      }

      .cls-4 {
        fill: #c69c6d;
      }

      .cls-5 {
        fill: #d3931e;
      }

      .cls-6 {
        fill: #6dae81;
      }

      .cls-7 {
        opacity: .2;
      }

      .cls-8 {
        fill: #a67c52;
      }

      .cls-9 {
        fill: #fbb03b;
      }
    </style>
  </defs>
  <g id="Ebene_1-2" data-name="Ebene_1">
    <path class="cls-6" d="M184.42,80.54c-28.98,28.76-37.05,73.35-74.86,71.48-1.59-37.81,12.12-76.14,41.1-104.9,28.98-28.76,53.95-32.44,91.75-30.57,1.59,37.81-29.02,35.24-58,64Z"/>
    <path class="cls-6" d="M176.42,84.54c-25.7,31.72-72.66,29.58-67,67,37.78-2.22,86.98-8.33,112.68-40.05,25.7-31.72,26.86-56.94,21.2-94.36-37.78,2.22-41.17,35.69-66.88,67.42Z"/>
    <g class="cls-7">
      <path d="M177.42,95.54c-32.14,25.19-73.56,18.13-67.89,55.55,37.78-2.22,86.98-8.33,112.68-40.05,25.7-31.72,26.86-56.94,21.2-94.36-32.98,16.87-28.98,49.87-65.98,78.87Z"/>
    </g>
    <g>
      <path class="cls-6" d="M61.76,87.76c28.98,28.76,37.05,73.35,74.86,71.48,1.59-37.81-12.12-76.14-41.1-104.9C66.54,25.57,41.56,21.89,3.76,23.76c-1.59,37.81,29.02,35.24,58,64Z"/>
      <path class="cls-6" d="M69.76,91.76c25.7,31.72,72.66,29.58,67,67-37.78-2.22-86.98-8.33-112.68-40.05C-1.63,86.99-2.78,61.77,2.88,24.35c37.78,2.22,41.17,35.69,66.88,67.42Z"/>
      <g class="cls-7">
        <path d="M69.66,89.31c36.91,17.45,72.66,29.58,67,67-37.78-2.22-86.98-8.33-112.68-40.05C-1.73,84.54-2.88,59.32,2.78,21.9c29.64,56.65,35.64,52.65,66.88,67.42Z"/>
      </g>
    </g>
    <g>
      <circle class="cls-3" cx="126.46" cy="66.5" r="66.5"/>
      <g>
        <circle class="cls-9" cx="126.46" cy="66.5" r="57.5"/>
        <path class="cls-5" d="M92.73,19.93c42.17-30.07,99.32,4.53,92.21,55.91-4.51,32.15-35.87,54.88-67.82,49.14-51.05-9.24-66.11-74.36-24.39-105.05h0ZM92.73,19.93c-18.52,13.13-27.5,37.86-21.59,59.77,9.72,38.49,55.89,55.1,87.88,31.75,32.17-23.13,30.79-72.16-2.77-93.4-18.98-12.44-45.27-11.61-63.52,1.89h0Z"/>
      </g>
      <g>
        <path class="cls-3" d="M153.64,82.83c-.03,5.34-2.1,9.91-6.21,13.71-4.11,3.81-9.27,6.07-15.48,6.79l-.05,7.93-6.21-.04.05-7.66c-3.92-.06-7.87-.54-11.84-1.44-3.97-.9-7.42-2.08-10.35-3.55l.07-11h.82c2.85,2.17,6.08,3.93,9.66,5.29,3.59,1.37,7.48,2.24,11.69,2.63l.15-23.53c-.91-.22-2.01-.49-3.32-.81s-2.41-.62-3.32-.92c-5.44-1.52-9.32-3.8-11.64-6.83-2.32-3.03-3.47-6.74-3.44-11.13.03-5.16,2.07-9.63,6.13-13.42,4.05-3.79,9.33-5.97,15.84-6.55l.05-7.58,6.21.04-.05,7.47c3.3.13,6.72.61,10.26,1.45,3.54.84,6.42,1.75,8.67,2.75l-.07,10.78h-.82c-2.53-1.76-5.31-3.31-8.33-4.63s-6.28-2.14-9.76-2.46l-.14,23.42c1.2.26,2.31.53,3.35.81,1.03.28,1.93.51,2.69.7,4.93,1.19,8.74,3.23,11.43,6.12,2.69,2.89,4.02,6.76,3.99,11.63ZM125.99,62.72l.14-22.55c-3.27.27-6.02,1.32-8.24,3.13-2.23,1.82-3.35,4.36-3.37,7.63s.77,5.73,2.38,7.5,4.64,3.2,9.1,4.28ZM143.34,84.18c.02-3.41-.83-5.94-2.57-7.59-1.73-1.64-4.61-2.9-8.64-3.76l-.14,22.6c3.71-.41,6.52-1.51,8.44-3.3,1.92-1.78,2.89-4.44,2.91-7.96Z"/>
        <g>
          <path class="cls-1" d="M153.64,82.83c.03,11.46-10.52,19.38-21.7,20.51,0,0-.05,7.93-.05,7.93l-6.21-.04s.05-7.66.05-7.66c-3.92-.06-7.87-.54-11.84-1.44-3.97-.9-7.42-2.08-10.35-3.55l.07-11h.82c6.1,4.6,13.45,7.22,21.36,7.93,0,0,.15-23.53.15-23.53-1.73-.44-4.94-1.16-6.63-1.73-5.44-1.52-9.32-3.8-11.64-6.83-2.32-3.03-3.47-6.74-3.44-11.13.08-11.4,10.51-19.17,21.96-19.96,0,0,.05-7.58.05-7.58l6.21.04-.05,7.47c5.75.14,14,2.03,18.93,4.2,0,0-.07,10.78-.07,10.78,0,0-.82,0-.82,0-2.53-1.76-5.31-3.3-8.33-4.63-3.02-1.33-6.28-2.14-9.76-2.46l-.14,23.42c11.43,2.39,21.58,5.87,21.45,19.25h0Z"/>
          <path class="cls-1" d="M125.99,62.72l.14-22.55c-6.2.52-11.7,4.05-11.61,10.77-.02,3.23.77,5.73,2.38,7.5,1.6,1.77,4.64,3.2,9.1,4.28h0Z"/>
          <path class="cls-1" d="M143.34,84.18c-.05-7.63-3.85-9.59-11.2-11.34,0,0-.14,22.6-.14,22.6,7.1-.85,11.3-3.89,11.34-11.26h0Z"/>
        </g>
      </g>
    </g>
    <path class="cls-4" d="M220.44,153.01l-.66,4.17-.54,3.38-20.35,127.97c-1.68,10.57-11.55,18.42-23.22,18.49l-54.67.31-7.54.04-44.29.25c-11.71.07-21.7-7.71-23.5-18.29l-21.8-128.77-.57-3.38-.94-5.55c-.85-5.03,3.41-9.58,8.98-9.58h178.74c6.38,0,11.28,5.18,10.36,10.96Z"/>
    <polygon class="cls-8" points="217.12 167.14 25.8 166.22 23.96 155.18 218.96 155.18 217.12 167.14"/>
    <path class="cls-4" d="M234.44,130.53v13.74c0,7.39-5.78,12.91-12.91,12.91H17.39c-7.13,0-12.91-5.78-12.91-12.91v-13.74c0-7.13,5.78-12.9,12.91-12.9h204.14c7.13,0,12.91,5.77,12.91,12.9Z"/>
    <path class="cls-2" d="M234.44,130.53v13.74c0,7.39-5.78,12.91-12.91,12.91h-1.75l-.54,3.38-20.35,127.97c-1.68,10.57-11.55,18.42-23.22,18.49l-54.67.31.46-.42V117.91l100.07-.28c7.13,0,12.91,5.77,12.91,12.9Z"/>
    <g>
      <path class="cls-6" d="M305.39,34.3h29.58v11.06h-18.32v10.82h18.32v10.9h-18.32v26.83h-11.27v-59.62Z"/>
      <path class="cls-6" d="M345.12,32.8h11.06v61.12h-11.06v-61.12Z"/>
      <path class="cls-6" d="M389.44,48.68c4.16,0,8.07,1.04,11.73,3.12,3.66,2.08,6.52,4.9,8.57,8.47,2.05,3.57,3.08,7.42,3.08,11.55s-1.03,8.05-3.1,11.67c-2.07,3.62-4.88,6.45-8.45,8.49s-7.5,3.06-11.79,3.06c-6.32,0-11.72-2.25-16.19-6.75-4.47-4.5-6.71-9.96-6.71-16.39,0-6.89,2.53-12.63,7.58-17.22,4.43-4,9.52-6,15.28-6ZM389.62,59.1c-3.44,0-6.3,1.2-8.59,3.59-2.29,2.39-3.43,5.45-3.43,9.18s1.13,6.94,3.39,9.32c2.26,2.38,5.12,3.57,8.59,3.57s6.35-1.2,8.65-3.61c2.3-2.4,3.45-5.5,3.45-9.28s-1.13-6.86-3.39-9.22-5.15-3.55-8.67-3.55Z"/>
      <path class="cls-6" d="M424.31,49.82h11.19v21.24c0,4.13.28,7,.85,8.61s1.48,2.86,2.74,3.75c1.26.89,2.81,1.34,4.65,1.34s3.41-.44,4.69-1.32c1.29-.88,2.24-2.17,2.86-3.87.46-1.27.69-3.98.69-8.15v-21.6h11.06v18.68c0,7.7-.61,12.97-1.82,15.81-1.49,3.46-3.67,6.11-6.57,7.96-2.89,1.85-6.57,2.78-11.02,2.78-4.84,0-8.75-1.08-11.73-3.24s-5.09-5.17-6.3-9.04c-.87-2.67-1.3-7.54-1.3-14.59v-18.36Z"/>
      <path class="cls-6" d="M474.05,49.82h9.48v5.55c1.03-2.19,2.39-3.85,4.09-4.99s3.57-1.7,5.59-1.7c1.43,0,2.93.38,4.5,1.13l-3.44,9.52c-1.3-.65-2.37-.97-3.2-.97-1.7,0-3.14,1.05-4.32,3.16-1.17,2.11-1.76,6.24-1.76,12.4l.04,2.15v17.83h-10.98v-44.09Z"/>
      <path class="cls-6" d="M510,31.66c1.94,0,3.6.7,4.99,2.11,1.39,1.41,2.08,3.11,2.08,5.11s-.69,3.65-2.06,5.05c-1.38,1.39-3.02,2.09-4.93,2.09s-3.64-.71-5.03-2.13c-1.39-1.42-2.08-3.14-2.08-5.17s.69-3.61,2.06-4.98,3.03-2.07,4.97-2.07ZM504.47,49.82h11.06v44.09h-11.06v-44.09Z"/>
      <path class="cls-6" d="M555.06,55.98l-6.85,6.85c-2.78-2.76-5.31-4.13-7.58-4.13-1.24,0-2.22.26-2.92.79-.7.53-1.05,1.18-1.05,1.97,0,.59.22,1.14.67,1.64.45.5,1.55,1.18,3.3,2.05l4.05,2.03c4.27,2.11,7.2,4.26,8.79,6.44,1.59,2.19,2.39,4.76,2.39,7.7,0,3.92-1.44,7.19-4.32,9.81-2.88,2.62-6.73,3.93-11.57,3.93-6.43,0-11.56-2.51-15.4-7.54l6.81-7.42c1.3,1.51,2.82,2.74,4.56,3.67,1.74.93,3.29,1.4,4.64,1.4,1.46,0,2.63-.35,3.53-1.05.89-.7,1.34-1.51,1.34-2.43,0-1.7-1.61-3.36-4.82-4.98l-3.73-1.86c-7.13-3.59-10.7-8.09-10.7-13.5,0-3.49,1.34-6.46,4.03-8.94,2.69-2.47,6.13-3.71,10.31-3.71,2.86,0,5.56.63,8.08,1.88,2.53,1.26,4.67,3.06,6.42,5.41Z"/>
      <path class="cls-6" d="M567.12,32.8h10.98v21.48c2.16-1.86,4.34-3.26,6.53-4.19,2.19-.93,4.4-1.4,6.65-1.4,4.38,0,8.06,1.51,11.06,4.54,2.57,2.62,3.85,6.47,3.85,11.55v29.14h-10.9v-19.33c0-5.11-.24-8.56-.73-10.38-.49-1.81-1.32-3.16-2.49-4.05-1.18-.89-2.63-1.34-4.36-1.34-2.24,0-4.17.74-5.78,2.23-1.61,1.49-2.72,3.51-3.34,6.08-.32,1.32-.49,4.35-.49,9.08v17.71h-10.98v-61.12Z"/>
    </g>
    <g>
      <path class="cls-6" d="M323.41,231.47h11.51l22.93,59.62h-11.79l-4.66-12.28h-24.33l-4.85,12.28h-11.79l22.99-59.62ZM329.24,247.27l-8,20.47h15.95l-7.95-20.47Z"/>
      <path class="cls-6" d="M409.4,255.91l-9.21,5.07c-1.73-1.81-3.44-3.07-5.13-3.77-1.69-.7-3.67-1.05-5.94-1.05-4.14,0-7.49,1.23-10.04,3.7-2.56,2.47-3.83,5.63-3.83,9.49s1.23,6.81,3.69,9.19c2.46,2.38,5.69,3.56,9.7,3.56,4.95,0,8.8-1.69,11.56-5.07l8.72,5.97c-4.73,6.15-11.4,9.22-20.02,9.22-7.75,0-13.83-2.3-18.22-6.89-4.39-4.59-6.59-9.97-6.59-16.13,0-4.27,1.07-8.2,3.2-11.79,2.13-3.59,5.11-6.42,8.94-8.47,3.82-2.05,8.1-3.08,12.83-3.08,4.38,0,8.31.87,11.79,2.61s6.33,4.22,8.55,7.44Z"/>
      <path class="cls-6" d="M452.74,246.99h11.06v44.09h-11.06v-4.66c-2.16,2.05-4.33,3.53-6.5,4.44-2.17.9-4.53,1.36-7.06,1.36-5.69,0-10.62-2.21-14.78-6.63-4.16-4.42-6.23-9.91-6.23-16.47s2.01-12.39,6.03-16.74c4.02-4.35,8.91-6.52,14.65-6.52,2.64,0,5.13.5,7.45,1.5,2.32,1,4.47,2.5,6.44,4.5v-4.86ZM441.11,256.07c-3.42,0-6.26,1.21-8.52,3.63-2.26,2.42-3.39,5.52-3.39,9.3s1.15,6.94,3.45,9.4c2.3,2.46,5.14,3.69,8.5,3.69s6.35-1.21,8.64-3.63c2.29-2.42,3.43-5.59,3.43-9.5s-1.15-6.94-3.43-9.32c-2.29-2.38-5.18-3.57-8.68-3.57Z"/>
      <path class="cls-6" d="M508.37,229.97h11.06v61.12h-11.06v-4.66c-2.16,2.05-4.33,3.53-6.5,4.44-2.17.9-4.53,1.36-7.06,1.36-5.69,0-10.62-2.21-14.78-6.63-4.16-4.42-6.23-9.91-6.23-16.47s2.01-12.39,6.03-16.74c4.02-4.35,8.91-6.52,14.65-6.52,2.64,0,5.13.5,7.45,1.5,2.32,1,4.47,2.5,6.44,4.5v-21.88ZM496.74,256.07c-3.42,0-6.26,1.21-8.52,3.63-2.26,2.42-3.39,5.52-3.39,9.3s1.15,6.94,3.45,9.4c2.3,2.46,5.14,3.69,8.5,3.69s6.35-1.21,8.64-3.63c2.29-2.42,3.43-5.59,3.43-9.5s-1.15-6.94-3.43-9.32c-2.29-2.38-5.18-3.57-8.68-3.57Z"/>
      <path class="cls-6" d="M575.62,272.24h-35.54c.51,3.13,1.88,5.63,4.11,7.48,2.23,1.85,5.07,2.78,8.53,2.78,4.13,0,7.69-1.45,10.66-4.34l9.32,4.38c-2.32,3.3-5.11,5.74-8.35,7.32s-7.09,2.37-11.55,2.37c-6.92,0-12.55-2.18-16.9-6.54-4.35-4.36-6.53-9.83-6.53-16.39s2.17-12.31,6.5-16.76c4.34-4.44,9.77-6.67,16.31-6.67,6.94,0,12.59,2.22,16.94,6.67,4.35,4.45,6.52,10.31,6.52,17.61l-.04,2.11ZM564.56,263.53c-.73-2.46-2.17-4.46-4.32-6-2.15-1.54-4.65-2.31-7.49-2.31-3.08,0-5.79.87-8.12,2.59-1.46,1.08-2.81,2.99-4.06,5.71h23.99Z"/>
      <path class="cls-6" d="M585.33,246.99h11.06v5.07c1.89-2.08,3.99-3.63,6.31-4.66,2.31-1.03,4.83-1.54,7.56-1.54s5.24.68,7.46,2.03c2.22,1.35,4,3.32,5.35,5.92,1.76-2.59,3.91-4.57,6.47-5.92,2.55-1.35,5.35-2.03,8.38-2.03s5.89.73,8.27,2.19c2.38,1.46,4.09,3.36,5.13,5.71s1.56,6.17,1.56,11.47v25.86h-11.14v-22.37c0-5-.62-8.38-1.86-10.15-1.24-1.77-3.11-2.65-5.59-2.65-1.89,0-3.59.54-5.09,1.62-1.5,1.08-2.61,2.57-3.34,4.48-.73,1.9-1.09,4.96-1.09,9.18v19.9h-11.15v-21.36c0-3.94-.29-6.8-.87-8.57-.58-1.77-1.46-3.09-2.62-3.95-1.17-.87-2.57-1.3-4.23-1.3-1.84,0-3.51.55-5.02,1.64-1.5,1.09-2.63,2.63-3.37,4.6-.75,1.97-1.12,5.08-1.12,9.32v19.62h-11.06v-44.09Z"/>
      <path class="cls-6" d="M659.36,246.99h11.31l11.45,27.67,12.64-27.67h11.34l-27.62,60.22h-11.43l9.07-19.42-16.76-40.8Z"/>
    </g>
    <g>
      <path class="cls-6" d="M305.39,132.47h29.58v11.06h-18.32v10.82h18.32v10.9h-18.32v26.83h-11.27v-59.62Z"/>
      <path class="cls-6" d="M350.65,129.83c1.94,0,3.6.7,4.99,2.11s2.08,3.11,2.08,5.11-.69,3.65-2.06,5.05c-1.38,1.39-3.02,2.09-4.93,2.09s-3.64-.71-5.03-2.13-2.08-3.14-2.08-5.17.69-3.61,2.06-4.98,3.03-2.07,4.97-2.07ZM345.12,147.99h11.06v44.09h-11.06v-44.09Z"/>
      <path class="cls-6" d="M368.73,147.99h11.06v4.52c2.51-2.11,4.78-3.59,6.82-4.41,2.04-.83,4.12-1.24,6.25-1.24,4.37,0,8.08,1.53,11.13,4.58,2.56,2.59,3.84,6.43,3.84,11.51v29.14h-10.94v-19.31c0-5.26-.24-8.76-.71-10.48s-1.29-3.04-2.47-3.95-2.62-1.36-4.35-1.36c-2.24,0-4.16.75-5.76,2.25-1.6,1.5-2.72,3.57-3.34,6.21-.32,1.38-.49,4.36-.49,8.95v17.69h-11.06v-44.09Z"/>
      <path class="cls-6" d="M453.57,147.99h11.06v44.09h-11.06v-4.66c-2.16,2.05-4.33,3.53-6.5,4.44-2.17.9-4.53,1.36-7.06,1.36-5.69,0-10.62-2.21-14.78-6.63-4.16-4.42-6.23-9.91-6.23-16.47s2.01-12.39,6.03-16.74c4.02-4.35,8.91-6.52,14.65-6.52,2.64,0,5.13.5,7.45,1.5,2.32,1,4.47,2.5,6.44,4.5v-4.86ZM441.94,157.07c-3.42,0-6.26,1.21-8.52,3.63-2.26,2.42-3.39,5.52-3.39,9.3s1.15,6.94,3.45,9.4c2.3,2.46,5.14,3.69,8.5,3.69s6.35-1.21,8.64-3.63c2.29-2.42,3.43-5.59,3.43-9.5s-1.15-6.94-3.43-9.32c-2.29-2.38-5.18-3.57-8.68-3.57Z"/>
      <path class="cls-6" d="M478.31,147.99h11.06v4.52c2.51-2.11,4.78-3.59,6.82-4.41,2.04-.83,4.12-1.24,6.25-1.24,4.37,0,8.08,1.53,11.13,4.58,2.56,2.59,3.84,6.43,3.84,11.51v29.14h-10.94v-19.31c0-5.26-.24-8.76-.71-10.48s-1.29-3.04-2.47-3.95-2.62-1.36-4.35-1.36c-2.24,0-4.16.75-5.76,2.25-1.6,1.5-2.72,3.57-3.34,6.21-.32,1.38-.49,4.36-.49,8.95v17.69h-11.06v-44.09Z"/>
      <path class="cls-6" d="M573.77,156.91l-9.21,5.07c-1.73-1.81-3.44-3.07-5.13-3.77s-3.67-1.05-5.94-1.05c-4.14,0-7.49,1.23-10.04,3.7-2.56,2.47-3.83,5.63-3.83,9.49s1.23,6.81,3.69,9.19c2.46,2.38,5.69,3.56,9.7,3.56,4.95,0,8.81-1.69,11.56-5.07l8.72,5.97c-4.73,6.15-11.4,9.22-20.02,9.22-7.75,0-13.83-2.3-18.22-6.89-4.39-4.59-6.58-9.97-6.58-16.13,0-4.27,1.07-8.2,3.2-11.79,2.13-3.59,5.11-6.42,8.94-8.47s8.1-3.08,12.83-3.08c4.38,0,8.31.87,11.79,2.61s6.34,4.22,8.55,7.44Z"/>
      <path class="cls-6" d="M630.4,173.24h-35.54c.51,3.13,1.88,5.63,4.11,7.48,2.23,1.85,5.07,2.78,8.53,2.78,4.13,0,7.69-1.45,10.66-4.34l9.32,4.38c-2.32,3.3-5.11,5.74-8.35,7.32s-7.09,2.37-11.55,2.37c-6.92,0-12.55-2.18-16.9-6.54-4.35-4.36-6.52-9.83-6.52-16.39s2.17-12.31,6.5-16.76c4.34-4.44,9.77-6.67,16.31-6.67,6.94,0,12.59,2.22,16.94,6.67,4.35,4.45,6.53,10.31,6.53,17.61l-.04,2.11ZM619.34,164.53c-.73-2.46-2.17-4.46-4.32-6-2.15-1.54-4.65-2.31-7.49-2.31-3.08,0-5.79.87-8.12,2.59-1.46,1.08-2.81,2.99-4.06,5.71h23.99Z"/>
    </g>
  </g>
</svg>