<?xml version="1.0" encoding="UTF-8"?>
<svg id="Ebene_2" xmlns="http://www.w3.org/2000/svg" viewBox="0 0 246.18 307.62">
  <defs>
    <style>
      .cls-1 {
        fill: none;
        stroke: #d3931e;
        stroke-linejoin: round;
      }

      .cls-2 {
        opacity: .09;
      }

      .cls-3 {
        fill: #ffc73b;
      }

      .cls-4 {
        fill: #c69c6d;
      }

      .cls-5 {
        fill: #d3931e;
      }

      .cls-6 {
        fill: #6dae81;
      }

      .cls-7 {
        opacity: .2;
      }

      .cls-8 {
        fill: #a67c52;
      }

      .cls-9 {
        fill: #fbb03b;
      }
    </style>
  </defs>
  <g id="Ebene_1-2" data-name="Ebene_1">
    <path class="cls-6" d="M184.42,80.54c-28.98,28.76-37.05,73.35-74.86,71.48-1.59-37.81,12.12-76.14,41.1-104.9,28.98-28.76,53.95-32.44,91.75-30.57,1.59,37.81-29.02,35.24-58,64Z"/>
    <path class="cls-6" d="M176.42,84.54c-25.7,31.72-72.66,29.58-67,67,37.78-2.22,86.98-8.33,112.68-40.05,25.7-31.72,26.86-56.94,21.2-94.36-37.78,2.22-41.17,35.69-66.88,67.42Z"/>
    <g class="cls-7">
      <path d="M177.42,95.54c-32.14,25.19-73.56,18.13-67.89,55.55,37.78-2.22,86.98-8.33,112.68-40.05,25.7-31.72,26.86-56.94,21.2-94.36-32.98,16.87-28.98,49.87-65.98,78.87Z"/>
    </g>
    <g>
      <path class="cls-6" d="M61.76,87.76c28.98,28.76,37.05,73.35,74.86,71.48,1.59-37.81-12.12-76.14-41.1-104.9C66.54,25.57,41.56,21.89,3.76,23.76c-1.59,37.81,29.02,35.24,58,64Z"/>
      <path class="cls-6" d="M69.76,91.76c25.7,31.72,72.66,29.58,67,67-37.78-2.22-86.98-8.33-112.68-40.05C-1.63,86.99-2.78,61.77,2.88,24.35c37.78,2.22,41.17,35.69,66.88,67.42Z"/>
      <g class="cls-7">
        <path d="M69.66,89.31c36.91,17.45,72.66,29.58,67,67-37.78-2.22-86.98-8.33-112.68-40.05C-1.73,84.54-2.88,59.32,2.78,21.9c29.64,56.65,35.64,52.65,66.88,67.42Z"/>
      </g>
    </g>
    <g>
      <circle class="cls-3" cx="126.46" cy="66.5" r="66.5"/>
      <g>
        <circle class="cls-9" cx="126.46" cy="66.5" r="57.5"/>
        <path class="cls-5" d="M92.73,19.93c42.17-30.07,99.32,4.53,92.21,55.91-4.51,32.15-35.87,54.88-67.82,49.14-51.05-9.24-66.11-74.36-24.39-105.05h0ZM92.73,19.93c-18.52,13.13-27.5,37.86-21.59,59.77,9.72,38.49,55.89,55.1,87.88,31.75,32.17-23.13,30.79-72.16-2.77-93.4-18.98-12.44-45.27-11.61-63.52,1.89h0Z"/>
      </g>
      <g>
        <path class="cls-3" d="M153.64,82.83c-.03,5.34-2.1,9.91-6.21,13.71-4.11,3.81-9.27,6.07-15.48,6.79l-.05,7.93-6.21-.04.05-7.66c-3.92-.06-7.87-.54-11.84-1.44-3.97-.9-7.42-2.08-10.35-3.55l.07-11h.82c2.85,2.17,6.08,3.93,9.66,5.29,3.59,1.37,7.48,2.24,11.69,2.63l.15-23.53c-.91-.22-2.01-.49-3.32-.81s-2.41-.62-3.32-.92c-5.44-1.52-9.32-3.8-11.64-6.83-2.32-3.03-3.47-6.74-3.44-11.13.03-5.16,2.07-9.63,6.13-13.42,4.05-3.79,9.33-5.97,15.84-6.55l.05-7.58,6.21.04-.05,7.47c3.3.13,6.72.61,10.26,1.45,3.54.84,6.42,1.75,8.67,2.75l-.07,10.78h-.82c-2.53-1.76-5.31-3.31-8.33-4.63s-6.28-2.14-9.76-2.46l-.14,23.42c1.2.26,2.31.53,3.35.81,1.03.28,1.93.51,2.69.7,4.93,1.19,8.74,3.23,11.43,6.12,2.69,2.89,4.02,6.76,3.99,11.63ZM125.99,62.72l.14-22.55c-3.27.27-6.02,1.32-8.24,3.13-2.23,1.82-3.35,4.36-3.37,7.63s.77,5.73,2.38,7.5,4.64,3.2,9.1,4.28ZM143.34,84.18c.02-3.41-.83-5.94-2.57-7.59-1.73-1.64-4.61-2.9-8.64-3.76l-.14,22.6c3.71-.41,6.52-1.51,8.44-3.3,1.92-1.78,2.89-4.44,2.91-7.96Z"/>
        <g>
          <path class="cls-1" d="M153.64,82.83c.03,11.46-10.52,19.38-21.7,20.51,0,0-.05,7.93-.05,7.93l-6.21-.04.05-7.66c-3.92-.06-7.87-.54-11.84-1.44-3.97-.9-7.42-2.08-10.35-3.55l.07-11h.82c6.1,4.6,13.45,7.22,21.36,7.93,0,0,.15-23.53.15-23.53-1.73-.44-4.94-1.16-6.63-1.73-5.44-1.52-9.32-3.8-11.64-6.83-2.32-3.03-3.47-6.74-3.44-11.13.08-11.4,10.51-19.17,21.96-19.96,0,0,.05-7.58.05-7.58,0,0,6.21.04,6.21.04,0,0-.05,7.47-.05,7.47,5.75.14,14,2.03,18.93,4.2,0,0-.07,10.78-.07,10.78h-.82c-2.53-1.76-5.31-3.31-8.33-4.63-3.02-1.33-6.28-2.14-9.76-2.46l-.14,23.42c11.43,2.39,21.58,5.87,21.45,19.25h0Z"/>
          <path class="cls-1" d="M125.99,62.72l.14-22.55c-6.2.52-11.7,4.05-11.61,10.77-.02,3.23.77,5.73,2.38,7.5,1.6,1.77,4.64,3.2,9.1,4.28h0Z"/>
          <path class="cls-1" d="M143.34,84.18c-.05-7.63-3.85-9.59-11.2-11.34,0,0-.14,22.6-.14,22.6,7.1-.85,11.3-3.89,11.34-11.26h0Z"/>
        </g>
      </g>
    </g>
    <path class="cls-4" d="M220.44,153.01l-.66,4.17-.54,3.38-20.35,127.97c-1.68,10.57-11.55,18.42-23.22,18.49l-54.67.31-7.54.04-44.29.25c-11.71.07-21.7-7.71-23.5-18.29l-21.8-128.77-.57-3.38-.94-5.55c-.85-5.03,3.41-9.58,8.98-9.58h178.74c6.38,0,11.28,5.18,10.36,10.96Z"/>
    <polygon class="cls-8" points="217.12 167.14 25.8 166.22 23.96 155.18 218.96 155.18 217.12 167.14"/>
    <path class="cls-4" d="M234.44,130.53v13.74c0,7.39-5.78,12.91-12.91,12.91H17.39c-7.13,0-12.91-5.78-12.91-12.91v-13.74c0-7.13,5.78-12.9,12.91-12.9h204.14c7.13,0,12.91,5.77,12.91,12.9Z"/>
    <path class="cls-2" d="M234.44,130.53v13.74c0,7.39-5.78,12.91-12.91,12.91h-1.75l-.54,3.38-20.35,127.97c-1.68,10.57-11.55,18.42-23.22,18.49l-54.67.31.46-.42V117.91l100.07-.28c7.13,0,12.91,5.77,12.91,12.9Z"/>
  </g>
</svg>