<?xml version="1.0" encoding="UTF-8"?>
<svg id="Ebene_2" xmlns="http://www.w3.org/2000/svg" viewBox="0 0 481.71 73.52">
  <defs>
    <style>
      .cls-1 {
        fill: #6dae81;
      }
    </style>
  </defs>
  <g id="Ebene_1-2" data-name="Ebene_1">
    <g>
      <path class="cls-1" d="M0,1.43h28.16v10.53H10.72v10.3h17.44v10.38H10.72v25.54H0V1.43Z"/>
      <path class="cls-1" d="M38.71,1.43h28.16v10.53h-17.44v10.3h17.44v10.38h-17.44v25.54h-10.72V1.43Z"/>
      <path class="cls-1" d="M117.47,1.43h10.95l21.82,56.74h-11.22l-4.44-11.69h-23.15l-4.62,11.69h-11.23L117.47,1.43ZM123.01,16.47l-7.61,19.48h15.18l-7.57-19.48Z"/>
      <path class="cls-1" d="M199.31,24.69l-8.77,4.82c-1.65-1.72-3.28-2.92-4.88-3.59-1.61-.67-3.5-1-5.66-1-3.94,0-7.13,1.17-9.56,3.52-2.43,2.35-3.65,5.36-3.65,9.03s1.17,6.48,3.51,8.74c2.34,2.26,5.42,3.39,9.23,3.39,4.71,0,8.38-1.61,11.01-4.82l8.3,5.69c-4.5,5.85-10.85,8.78-19.06,8.78-7.38,0-13.16-2.19-17.34-6.56-4.18-4.37-6.27-9.49-6.27-15.35,0-4.06,1.02-7.8,3.05-11.22,2.03-3.42,4.87-6.11,8.51-8.06,3.64-1.95,7.71-2.93,12.21-2.93,4.17,0,7.91.83,11.23,2.49,3.32,1.66,6.03,4.02,8.14,7.08Z"/>
      <path class="cls-1" d="M240.56,16.2h10.53v41.97h-10.53v-4.44c-2.05,1.95-4.12,3.36-6.18,4.22-2.07.86-4.31,1.29-6.72,1.29-5.42,0-10.11-2.1-14.06-6.31-3.96-4.21-5.93-9.43-5.93-15.68s1.91-11.79,5.74-15.93,8.48-6.21,13.95-6.21c2.52,0,4.88.48,7.09,1.43s4.25,2.38,6.13,4.28v-4.63ZM229.49,24.84c-3.26,0-5.96,1.15-8.11,3.45-2.15,2.3-3.23,5.25-3.23,8.85s1.1,6.61,3.29,8.95,4.89,3.51,8.09,3.51,6.05-1.15,8.23-3.45c2.18-2.3,3.27-5.32,3.27-9.05s-1.09-6.61-3.27-8.87c-2.18-2.26-4.93-3.39-8.27-3.39Z"/>
      <path class="cls-1" d="M293.51,0h10.53v58.17h-10.53v-4.44c-2.05,1.95-4.12,3.36-6.18,4.22-2.07.86-4.31,1.29-6.72,1.29-5.42,0-10.11-2.1-14.06-6.31-3.96-4.21-5.93-9.43-5.93-15.68s1.91-11.79,5.74-15.93c3.83-4.14,8.48-6.21,13.95-6.21,2.52,0,4.88.48,7.09,1.43s4.25,2.38,6.13,4.28V0ZM282.44,24.84c-3.25,0-5.96,1.15-8.11,3.45-2.15,2.3-3.23,5.25-3.23,8.85s1.09,6.61,3.29,8.95,4.89,3.51,8.09,3.51,6.05-1.15,8.23-3.45c2.18-2.3,3.27-5.32,3.27-9.05s-1.09-6.61-3.27-8.87c-2.18-2.26-4.93-3.39-8.27-3.39Z"/>
      <path class="cls-1" d="M357.52,40.23h-33.83c.49,2.98,1.79,5.36,3.92,7.12,2.12,1.76,4.83,2.64,8.12,2.64,3.94,0,7.32-1.38,10.15-4.13l8.87,4.17c-2.21,3.14-4.86,5.46-7.95,6.96-3.09,1.5-6.75,2.26-10.99,2.26-6.58,0-11.95-2.08-16.09-6.23-4.14-4.15-6.21-9.35-6.21-15.6s2.06-11.72,6.19-15.95c4.13-4.23,9.3-6.35,15.53-6.35,6.61,0,11.98,2.12,16.12,6.35,4.14,4.23,6.21,9.82,6.21,16.76l-.04,2.01ZM346.99,31.94c-.7-2.34-2.07-4.24-4.12-5.71-2.05-1.47-4.42-2.2-7.13-2.2-2.94,0-5.51.82-7.73,2.47-1.39,1.03-2.68,2.84-3.86,5.44h22.84Z"/>
      <path class="cls-1" d="M366.76,16.2h10.53v4.82c1.8-1.98,3.8-3.46,6-4.44,2.2-.98,4.6-1.47,7.2-1.47s4.99.64,7.1,1.93c2.11,1.29,3.81,3.16,5.1,5.63,1.67-2.47,3.72-4.35,6.16-5.63,2.43-1.29,5.09-1.93,7.97-1.93s5.61.69,7.87,2.08,3.89,3.2,4.88,5.44c.99,2.24,1.49,5.88,1.49,10.92v24.61h-10.61v-21.29c0-4.76-.59-7.98-1.77-9.66-1.18-1.68-2.96-2.53-5.32-2.53-1.8,0-3.41.51-4.84,1.54-1.43,1.03-2.49,2.45-3.18,4.26-.69,1.81-1.04,4.73-1.04,8.74v18.94h-10.61v-20.33c0-3.75-.28-6.47-.83-8.16-.55-1.68-1.39-2.94-2.49-3.76-1.11-.82-2.45-1.23-4.02-1.23-1.75,0-3.34.52-4.78,1.56-1.43,1.04-2.5,2.5-3.21,4.38-.71,1.88-1.06,4.83-1.06,8.87v18.67h-10.53V16.2Z"/>
      <path class="cls-1" d="M437.22,16.2h10.76l10.9,26.33,12.03-26.33h10.79l-26.29,57.32h-10.88l8.63-18.48-15.95-38.84Z"/>
    </g>
  </g>
</svg>